<svg width="26" height="26" viewBox="0 0 26 26" fill="none" xmlns="http://www.w3.org/2000/svg">
<path d="M11.431 9.71931C11.5593 9.71931 11.6876 9.67039 11.7854 9.57248L12.0528 9.30514C12.2485 9.10939 12.2485 8.79203 12.0528 8.59628C11.8571 8.40052 11.5397 8.40052 11.3439 8.59628L11.0766 8.86361C10.7599 9.18033 10.9885 9.71931 11.431 9.71931Z" fill="white"/>
<path d="M13.569 9.98664C13.6973 9.98664 13.8256 9.93772 13.9234 9.83981L14.1908 9.57248C14.3865 9.37672 14.3865 9.05937 14.1908 8.86361C13.9951 8.66786 13.6777 8.66786 13.4819 8.86361L13.2146 9.13094C12.8979 9.44767 13.1265 9.98664 13.569 9.98664Z" fill="white"/>
<path d="M11.431 11.8572C11.5593 11.8572 11.6876 11.8083 11.7854 11.7104L12.0528 11.4431C12.2485 11.2473 12.2485 10.93 12.0528 10.7342C11.8571 10.5385 11.5397 10.5385 11.3439 10.7342L11.0766 11.0016C10.7599 11.3183 10.9885 11.8572 11.431 11.8572Z" fill="white"/>
<path d="M4.98395 13.9948H21.0852C21.362 13.9948 21.5863 13.7705 21.5863 13.4937C21.5863 13.217 21.362 12.9927 21.0852 12.9927H20.484V6.7274C20.484 5.46869 19.4656 4.44836 18.2052 4.44836C17.6788 4.44836 17.1653 4.63239 16.7593 4.96544L16.4446 5.22363C15.7405 4.80917 14.8171 4.90384 14.2131 5.50784L13.4573 6.2637C13.2616 6.45939 13.2616 6.77664 13.4573 6.97233L15.347 8.86202C15.5426 9.05771 15.8599 9.05774 16.0556 8.86202C16.858 8.05963 16.8081 8.10616 16.8115 8.10616C17.3939 7.52378 17.5027 6.64442 17.1382 5.95096L17.395 5.74024C17.6212 5.55464 17.907 5.45176 18.1996 5.45055C18.8843 5.44441 19.4818 6.00104 19.4818 6.7274V12.9927C18.9684 12.9927 5.49248 12.9927 4.98395 12.9927C4.70722 12.9927 4.48287 13.2171 4.48287 13.4938C4.48287 13.7705 4.70722 13.9948 4.98395 13.9948Z" fill="white"/>
<path d="M5.85027 14.9969L6.06377 16.1711C6.38148 17.9186 7.67817 19.2758 9.32655 19.7193V20.442C9.32655 20.7188 9.5509 20.9431 9.82763 20.9431C10.1044 20.9431 10.3287 20.7188 10.3287 20.442V19.8707C10.4851 19.8766 15.6019 19.8759 15.7403 19.8707V20.442C15.7403 20.7188 15.9647 20.9431 16.2414 20.9431C16.5181 20.9431 16.7425 20.7188 16.7425 20.442V19.7193C18.3909 19.2758 19.6876 17.9186 20.0053 16.1711L20.2188 14.997H5.85027V14.9969Z" fill="white"/>
</svg>
