<svg width="18" height="15" viewBox="0 0 18 15" fill="none" xmlns="http://www.w3.org/2000/svg">
<path d="M17.2413 6.60687V14.3034H15.5309V11.7379H1.84816V14.3034H0.137817V0.620667H1.84816V9.17239H8.68954V3.18618H13.8206C14.7278 3.18618 15.5979 3.54658 16.2394 4.18808C16.8809 4.82958 17.2413 5.69965 17.2413 6.60687ZM5.26885 8.31722C4.58843 8.31722 3.93588 8.04692 3.45476 7.5658C2.97363 7.08467 2.70333 6.43212 2.70333 5.7517C2.70333 5.07128 2.97363 4.41873 3.45476 3.93761C3.93588 3.45648 4.58843 3.18618 5.26885 3.18618C5.94927 3.18618 6.60182 3.45648 7.08295 3.93761C7.56407 4.41873 7.83437 5.07128 7.83437 5.7517C7.83437 6.43212 7.56407 7.08467 7.08295 7.5658C6.60182 8.04692 5.94927 8.31722 5.26885 8.31722Z" fill="#858585"/>
</svg>
