<svg width="18" height="15" viewBox="0 0 18 15" fill="none" xmlns="http://www.w3.org/2000/svg">
<path d="M17.2759 6.57251V14.2691H15.5655V11.7035H1.88275V14.2691H0.172409V0.586304H1.88275V9.13803H8.72413V3.15182H13.8552C14.7624 3.15182 15.6325 3.51221 16.274 4.15372C16.9155 4.79522 17.2759 5.66529 17.2759 6.57251ZM5.30344 8.28286C4.62303 8.28286 3.97048 8.01256 3.48935 7.53143C3.00822 7.05031 2.73793 6.39776 2.73793 5.71734C2.73793 5.03692 3.00822 4.38437 3.48935 3.90324C3.97048 3.42212 4.62303 3.15182 5.30344 3.15182C5.98386 3.15182 6.63641 3.42212 7.11754 3.90324C7.59867 4.38437 7.86896 5.03692 7.86896 5.71734C7.86896 6.39776 7.59867 7.05031 7.11754 7.53143C6.63641 8.01256 5.98386 8.28286 5.30344 8.28286Z" fill="white"/>
</svg>
