<svg width="18" height="18" viewBox="0 0 18 18" fill="none" xmlns="http://www.w3.org/2000/svg">
<path d="M3.84183 14.2022C4.01851 13.7015 4.34615 13.2679 4.77961 12.9612C5.21306 12.6545 5.73098 12.4897 6.26196 12.4897C6.79295 12.4897 7.31087 12.6545 7.74432 12.9612C8.17777 13.2679 8.50542 13.7015 8.6821 14.2022H17.3792V15.9125H8.6821C8.50542 16.4133 8.17777 16.8469 7.74432 17.1536C7.31087 17.4603 6.79295 17.625 6.26196 17.625C5.73098 17.625 5.21306 17.4603 4.77961 17.1536C4.34615 16.8469 4.01851 16.4133 3.84183 15.9125H0.275757V14.2022H3.84183ZM8.97286 8.21598C9.14954 7.71525 9.47719 7.28165 9.91064 6.97495C10.3441 6.66824 10.862 6.50354 11.393 6.50354C11.924 6.50354 12.4419 6.66824 12.8754 6.97495C13.3088 7.28165 13.6365 7.71525 13.8131 8.21598H17.3792V9.92633H13.8131C13.6365 10.4271 13.3088 10.8607 12.8754 11.1674C12.4419 11.4741 11.924 11.6388 11.393 11.6388C10.862 11.6388 10.3441 11.4741 9.91064 11.1674C9.47719 10.8607 9.14954 10.4271 8.97286 9.92633H0.275757V8.21598H8.97286ZM3.84183 2.22977C4.01851 1.72904 4.34615 1.29544 4.77961 0.988739C5.21306 0.682037 5.73098 0.517334 6.26196 0.517334C6.79295 0.517334 7.31087 0.682037 7.74432 0.988739C8.17777 1.29544 8.50542 1.72904 8.6821 2.22977H17.3792V3.94012H8.6821C8.50542 4.44085 8.17777 4.87445 7.74432 5.18115C7.31087 5.48786 6.79295 5.65256 6.26196 5.65256C5.73098 5.65256 5.21306 5.48786 4.77961 5.18115C4.34615 4.87445 4.01851 4.44085 3.84183 3.94012H0.275757V2.22977H3.84183ZM6.26196 3.94012C6.48877 3.94012 6.70629 3.85002 6.86666 3.68964C7.02704 3.52927 7.11714 3.31175 7.11714 3.08495C7.11714 2.85814 7.02704 2.64062 6.86666 2.48025C6.70629 2.31987 6.48877 2.22977 6.26196 2.22977C6.03516 2.22977 5.81764 2.31987 5.65727 2.48025C5.49689 2.64062 5.40679 2.85814 5.40679 3.08495C5.40679 3.31175 5.49689 3.52927 5.65727 3.68964C5.81764 3.85002 6.03516 3.94012 6.26196 3.94012ZM11.393 9.92633C11.6198 9.92633 11.8373 9.83623 11.9977 9.67585C12.1581 9.51548 12.2482 9.29796 12.2482 9.07115C12.2482 8.84435 12.1581 8.62683 11.9977 8.46646C11.8373 8.30608 11.6198 8.21598 11.393 8.21598C11.1662 8.21598 10.9487 8.30608 10.7883 8.46646C10.6279 8.62683 10.5378 8.84435 10.5378 9.07115C10.5378 9.29796 10.6279 9.51548 10.7883 9.67585C10.9487 9.83623 11.1662 9.92633 11.393 9.92633ZM6.26196 15.9125C6.48877 15.9125 6.70629 15.8224 6.86666 15.6621C7.02704 15.5017 7.11714 15.2842 7.11714 15.0574C7.11714 14.8306 7.02704 14.613 6.86666 14.4527C6.70629 14.2923 6.48877 14.2022 6.26196 14.2022C6.03516 14.2022 5.81764 14.2923 5.65727 14.4527C5.49689 14.613 5.40679 14.8306 5.40679 15.0574C5.40679 15.2842 5.49689 15.5017 5.65727 15.6621C5.81764 15.8224 6.03516 15.9125 6.26196 15.9125Z" fill="white"/>
</svg>
