<svg width="19" height="18" viewBox="0 0 19 18" fill="none" xmlns="http://www.w3.org/2000/svg">
<path d="M9.48276 17.8964C4.75964 17.8964 0.93103 14.0678 0.93103 9.34469C0.93103 4.62158 4.75964 0.792969 9.48276 0.792969C14.2059 0.792969 18.0345 4.62158 18.0345 9.34469C18.0345 14.0678 14.2059 17.8964 9.48276 17.8964ZM9.48276 16.1861C11.2972 16.1861 13.0373 15.4653 14.3203 14.1823C15.6033 12.8993 16.3241 11.1591 16.3241 9.34469C16.3241 7.53025 15.6033 5.79012 14.3203 4.50711C13.0373 3.2241 11.2972 2.50331 9.48276 2.50331C7.66831 2.50331 5.92818 3.2241 4.64517 4.50711C3.36216 5.79012 2.64138 7.53025 2.64138 9.34469C2.64138 11.1591 3.36216 12.8993 4.64517 14.1823C5.92818 15.4653 7.66831 16.1861 9.48276 16.1861ZM8.62758 11.9102H10.3379V13.6206H8.62758V11.9102ZM10.3379 10.5035V11.055H8.62758V9.77228C8.62758 9.54547 8.71768 9.32796 8.87806 9.16758C9.03843 9.00721 9.25595 8.91711 9.48276 8.91711C9.72569 8.91709 9.96363 8.84809 10.1689 8.71813C10.3741 8.58818 10.5383 8.40261 10.6422 8.18301C10.7461 7.96342 10.7855 7.71884 10.7558 7.47772C10.7262 7.2366 10.6286 7.00886 10.4746 6.821C10.3206 6.63315 10.1164 6.49289 9.88573 6.41656C9.6551 6.34022 9.40753 6.33095 9.17184 6.38982C8.93614 6.44869 8.72201 6.57328 8.55435 6.74909C8.3867 6.9249 8.27241 7.1447 8.2248 7.38293L6.54695 7.04684C6.65096 6.52697 6.89116 6.04404 7.24299 5.64743C7.59482 5.25081 8.04565 4.95474 8.54941 4.78946C9.05317 4.62419 9.59178 4.59565 10.1102 4.70676C10.6286 4.81788 11.1082 5.06465 11.5 5.42187C11.8917 5.77908 12.1816 6.23392 12.34 6.73989C12.4984 7.24586 12.5195 7.78481 12.4013 8.30165C12.2832 8.81848 12.0298 9.29466 11.6673 9.68152C11.3048 10.0684 10.846 10.352 10.3379 10.5035Z" fill="white"/>
</svg>
