<svg width="19" height="19" viewBox="0 0 19 19" fill="none" xmlns="http://www.w3.org/2000/svg">
<path d="M18.0345 17.6425C18.0345 17.8946 17.9344 18.1362 17.7562 18.3144C17.578 18.4926 17.3363 18.5927 17.0843 18.5927H1.88122C1.62922 18.5927 1.38753 18.4926 1.20934 18.3144C1.03114 18.1362 0.931031 17.8946 0.931031 17.6425V7.65603C0.93093 7.51124 0.963923 7.36833 1.02749 7.23823C1.09106 7.10814 1.18352 6.99429 1.2978 6.90538L8.89934 0.99329C9.06614 0.863537 9.27143 0.793091 9.48276 0.793091C9.69408 0.793091 9.89937 0.863537 10.0662 0.99329L17.6677 6.90538C17.782 6.99429 17.8745 7.10814 17.938 7.23823C18.0016 7.36833 18.0346 7.51124 18.0345 7.65603V17.6425ZM16.1341 16.6924V8.11973L9.48276 2.94688L2.83141 8.11973V16.6924H16.1341ZM4.7318 12.8916H14.2337V14.792H4.7318V12.8916Z" fill="#0A8ED9"/>
</svg>
