<svg width="15" height="19" viewBox="0 0 15 19" fill="none" xmlns="http://www.w3.org/2000/svg">
<path d="M7.48276 18.1339L2.19162 12.8428C1.14515 11.7963 0.432492 10.463 0.143776 9.0115C-0.144941 7.55999 0.00324822 6.05547 0.569603 4.68818C1.13596 3.32089 2.09504 2.15225 3.32557 1.33003C4.5561 0.507823 6.00281 0.0689697 7.48276 0.0689697C8.9627 0.0689697 10.4094 0.507823 11.6399 1.33003C12.8705 2.15225 13.8296 3.32089 14.3959 4.68818C14.9623 6.05547 15.1105 7.55999 14.8217 9.0115C14.533 10.463 13.8204 11.7963 12.7739 12.8428L7.48276 18.1339ZM11.5983 11.6672C12.4121 10.8532 12.9664 9.81621 13.1909 8.68727C13.4154 7.55833 13.3001 6.38817 12.8596 5.32476C12.4191 4.26134 11.6731 3.35243 10.7161 2.71295C9.759 2.07348 8.63381 1.73216 7.48276 1.73216C6.33171 1.73216 5.20651 2.07348 4.24945 2.71295C3.29238 3.35243 2.54642 4.26134 2.10591 5.32476C1.6654 6.38817 1.55011 7.55833 1.77462 8.68727C1.99914 9.81621 2.55337 10.8532 3.36724 11.6672L7.48276 15.7827L11.5983 11.6672ZM7.48276 9.21449C7.04175 9.21449 6.6188 9.0393 6.30696 8.72746C5.99512 8.41562 5.81992 7.99267 5.81992 7.55166C5.81992 7.11065 5.99512 6.6877 6.30696 6.37586C6.6188 6.06402 7.04175 5.88882 7.48276 5.88882C7.92377 5.88882 8.34672 6.06402 8.65856 6.37586C8.9704 6.6877 9.14559 7.11065 9.14559 7.55166C9.14559 7.99267 8.9704 8.41562 8.65856 8.72746C8.34672 9.0393 7.92377 9.21449 7.48276 9.21449Z" fill="white"/>
</svg>
