<svg width="19" height="18" viewBox="0 0 19 18" fill="none" xmlns="http://www.w3.org/2000/svg">
<path d="M4.57834 2.20039L5.55922 3.60201C4.36727 4.43646 3.4724 5.6292 3.0046 7.00697C2.53681 8.38473 2.52045 9.87576 2.95792 11.2634C3.39539 12.6511 4.26389 13.8632 5.43725 14.7236C6.61062 15.584 8.02774 16.0479 9.48276 16.0479C10.9378 16.0479 12.3549 15.584 13.5283 14.7236C14.7016 13.8632 15.5701 12.6511 16.0076 11.2634C16.4451 9.87576 16.4287 8.38473 15.9609 7.00697C15.4931 5.6292 14.5982 4.43646 13.4063 3.60201L14.3872 2.20039C15.5142 2.98836 16.4344 4.03683 17.0694 5.25666C17.7044 6.47649 18.0355 7.8316 18.0345 9.20681C18.0345 13.9299 14.2059 17.7585 9.48276 17.7585C4.75964 17.7585 0.931032 13.9299 0.931032 9.20681C0.930042 7.8316 1.26112 6.47649 1.89612 5.25666C2.53112 4.03683 3.45127 2.98836 4.57834 2.20039ZM8.62758 9.20681V0.65509H10.3379V9.20681H8.62758Z" fill="white"/>
</svg>
