<svg width="14" height="14" viewBox="0 0 14 14" fill="none" xmlns="http://www.w3.org/2000/svg">
<path d="M13.62 10.0805V12.6002C13.6201 12.7807 13.5518 12.9544 13.4288 13.0864C13.3058 13.2184 13.1373 13.2988 12.9573 13.3114C12.6459 13.3328 12.3915 13.3442 12.1948 13.3442C5.89754 13.3442 0.793152 8.23982 0.793152 1.94254C0.793152 1.74586 0.803841 1.49146 0.825932 1.18006C0.838561 1.00008 0.918984 0.8316 1.05097 0.708603C1.18296 0.585606 1.3567 0.517252 1.53711 0.517334H4.05688C4.14527 0.517245 4.23054 0.550013 4.29612 0.609274C4.3617 0.668536 4.40292 0.750058 4.41176 0.838006C4.42815 1.0019 4.44311 1.13231 4.45736 1.23136C4.59898 2.21969 4.8892 3.18093 5.31819 4.08249C5.38589 4.22501 5.3417 4.39533 5.21344 4.48654L3.67564 5.58537C4.61588 7.77624 6.36183 9.52219 8.5527 10.4624L9.65011 8.92749C9.69496 8.86478 9.76041 8.8198 9.83503 8.8004C9.90965 8.78099 9.98871 8.78839 10.0584 8.82131C10.9599 9.24949 11.9209 9.53899 12.9088 9.68C13.0079 9.69425 13.1383 9.70993 13.3008 9.7256C13.3886 9.73461 13.4699 9.77589 13.5291 9.84146C13.5882 9.90702 13.6208 9.9922 13.6207 10.0805H13.62Z" fill="white"/>
</svg>
