<svg width="13" height="18" viewBox="0 0 13 18" fill="none" xmlns="http://www.w3.org/2000/svg">
<path d="M12.8968 17.0431H11.2934V15.4397C11.2934 14.8018 11.04 14.19 10.5889 13.739C10.1378 13.2879 9.52607 13.0345 8.88818 13.0345H4.07783C3.43994 13.0345 2.82818 13.2879 2.37712 13.739C1.92606 14.19 1.67266 14.8018 1.67266 15.4397V17.0431H0.0692139V15.4397C0.0692139 14.3765 0.491549 13.3569 1.24331 12.6051C1.99507 11.8534 3.01468 11.431 4.07783 11.431H8.88818C9.95133 11.431 10.9709 11.8534 11.7227 12.6051C12.4745 13.3569 12.8968 14.3765 12.8968 15.4397V17.0431ZM6.48301 9.8276C5.8513 9.8276 5.22579 9.70318 4.64217 9.46143C4.05855 9.21969 3.52826 8.86536 3.08158 8.41868C2.6349 7.972 2.28057 7.44171 2.03883 6.85809C1.79709 6.27448 1.67266 5.64896 1.67266 5.01725C1.67266 4.38555 1.79709 3.76003 2.03883 3.17641C2.28057 2.5928 2.6349 2.06251 3.08158 1.61583C3.52826 1.16914 4.05855 0.814817 4.64217 0.573075C5.22579 0.331332 5.8513 0.206909 6.48301 0.206909C7.75879 0.206909 8.98232 0.713712 9.88443 1.61583C10.7865 2.51794 11.2934 3.74147 11.2934 5.01725C11.2934 6.29304 10.7865 7.51657 9.88443 8.41868C8.98232 9.3208 7.75879 9.8276 6.48301 9.8276ZM6.48301 8.22415C7.33353 8.22415 8.14922 7.88628 8.75063 7.28487C9.35204 6.68346 9.6899 5.86778 9.6899 5.01725C9.6899 4.16673 9.35204 3.35105 8.75063 2.74964C8.14922 2.14823 7.33353 1.81036 6.48301 1.81036C5.63248 1.81036 4.8168 2.14823 4.21539 2.74964C3.61398 3.35105 3.27611 4.16673 3.27611 5.01725C3.27611 5.86778 3.61398 6.68346 4.21539 7.28487C4.8168 7.88628 5.63248 8.22415 6.48301 8.22415Z" fill="white"/>
</svg>
