<svg width="14" height="17" viewBox="0 0 14 17" fill="none" xmlns="http://www.w3.org/2000/svg">
<path d="M1.31904 0.379395H12.5432C12.7558 0.379395 12.9597 0.463862 13.1101 0.614214C13.2604 0.764566 13.3449 0.968488 13.3449 1.18112V16.5285C13.345 16.6002 13.3259 16.6706 13.2895 16.7324C13.2531 16.7941 13.2009 16.845 13.1382 16.8797C13.0755 16.9145 13.0046 16.9317 12.9329 16.9297C12.8613 16.9277 12.7915 16.9066 12.7308 16.8685L6.93111 13.231L1.13144 16.8677C1.0708 16.9058 1.00107 16.9269 0.929487 16.9289C0.857904 16.9309 0.787088 16.9138 0.7244 16.8791C0.661712 16.8445 0.609442 16.7937 0.573025 16.7321C0.536607 16.6704 0.517372 16.6001 0.517319 16.5285V1.18112C0.517319 0.968488 0.601786 0.764566 0.752138 0.614214C0.902491 0.463862 1.10641 0.379395 1.31904 0.379395ZM11.7415 1.98284H2.12077V14.355L6.93111 11.3398L11.7415 14.355V1.98284Z" fill="white"/>
</svg>
