<svg width="18" height="18" viewBox="0 0 18 18" fill="none" xmlns="http://www.w3.org/2000/svg">
<path d="M14.2856 12.8242L17.9981 16.4294L16.7716 17.6208L13.0599 14.0147C11.6789 15.0901 9.96107 15.6749 8.19105 15.6725C3.88474 15.6725 0.389771 12.2777 0.389771 8.09492C0.389771 3.91209 3.88474 0.517334 8.19105 0.517334C12.4974 0.517334 15.9923 3.91209 15.9923 8.09492C15.9948 9.81419 15.3927 11.4827 14.2856 12.8242ZM12.5468 12.1994C13.6468 11.1006 14.2612 9.62763 14.2587 8.09492C14.2587 4.83824 11.543 2.20124 8.19105 2.20124C4.83823 2.20124 2.12339 4.83824 2.12339 8.09492C2.12339 11.3508 4.83823 13.9886 8.19105 13.9886C9.76901 13.991 11.2855 13.3943 12.4167 12.3257L12.5468 12.1994Z" fill="#838383"/>
</svg>
