<svg width="19" height="19" viewBox="0 0 19 19" fill="none" xmlns="http://www.w3.org/2000/svg">
<path d="M1.79856 14.2419C1.42347 13.5932 1.1319 12.8998 0.930786 12.178C1.36849 11.9554 1.73609 11.616 1.9929 11.1975C2.24971 10.7789 2.38574 10.2975 2.38592 9.80639C2.3861 9.31532 2.25044 8.83378 1.99394 8.41502C1.73744 7.99626 1.3701 7.65662 0.932561 7.43367C1.33365 5.98338 2.09734 4.65907 3.15168 3.58549C3.56347 3.85321 4.0413 4.00177 4.53229 4.01474C5.02328 4.02771 5.50829 3.90459 5.93363 3.65898C6.35898 3.41338 6.70808 3.05489 6.94231 2.62317C7.17653 2.19145 7.28673 1.70334 7.26073 1.21287C8.71776 0.836321 10.2467 0.836932 11.7034 1.21464C11.6776 1.70511 11.7881 2.19314 12.0225 2.62474C12.2569 3.05633 12.6061 3.41466 13.0315 3.66007C13.457 3.90549 13.942 4.02841 14.433 4.01525C14.9239 4.00209 15.4017 3.85334 15.8133 3.58549C16.3271 4.10899 16.7832 4.70436 17.1665 5.36895C17.5507 6.03353 17.8381 6.7265 18.0342 7.43279C17.5965 7.65541 17.2289 7.99477 16.9721 8.41334C16.7153 8.8319 16.5793 9.31335 16.5791 9.80442C16.5789 10.2955 16.7146 10.777 16.9711 11.1958C17.2276 11.6145 17.5949 11.9542 18.0325 12.1771C17.6314 13.6274 16.8677 14.9517 15.8133 16.0253C15.4016 15.7576 14.9237 15.609 14.4327 15.5961C13.9417 15.5831 13.4567 15.7062 13.0314 15.9518C12.606 16.1974 12.2569 16.5559 12.0227 16.9876C11.7885 17.4194 11.6783 17.9075 11.7043 18.3979C10.2473 18.7745 8.71835 18.7739 7.26162 18.3962C7.28739 17.9057 7.17697 17.4177 6.94257 16.9861C6.70816 16.5545 6.35892 16.1962 5.93349 15.9507C5.50806 15.7053 5.02303 15.5824 4.53206 15.5956C4.0411 15.6087 3.56335 15.7575 3.15168 16.0253C2.62728 15.4902 2.17264 14.891 1.79856 14.2419ZM6.82063 14.4158C7.76616 14.9611 8.47707 15.8363 8.81704 16.8736C9.2598 16.9153 9.70433 16.9162 10.1471 16.8745C10.4873 15.8371 11.1985 14.9619 12.1444 14.4167C13.0895 13.8698 14.2034 13.6913 15.2721 13.9153C15.5294 13.5533 15.7512 13.1674 15.9358 12.7636C15.2077 11.9504 14.8055 10.897 14.8063 9.80541C14.8063 8.68742 15.2233 7.64308 15.9358 6.84718C15.7499 6.44359 15.5272 6.05805 15.2703 5.69547C14.2023 5.91934 13.0892 5.74114 12.1444 5.19504C11.1989 4.64968 10.488 3.77447 10.148 2.73724C9.70522 2.69553 9.26069 2.69465 8.81793 2.73635C8.47774 3.77372 7.76649 4.64896 6.82063 5.19415C5.87547 5.741 4.76165 5.91953 3.69293 5.69547C3.43611 6.05774 3.21391 6.44333 3.02923 6.84718C3.75732 7.66043 4.15954 8.71385 4.15876 9.80541C4.15876 10.9234 3.74173 11.9677 3.02923 12.7636C3.2151 13.1672 3.43787 13.5528 3.6947 13.9153C4.76275 13.6915 5.87585 13.8697 6.82063 14.4158ZM9.48251 12.4673C8.77654 12.4673 8.09948 12.1868 7.60028 11.6876C7.10108 11.1884 6.82063 10.5114 6.82063 9.80541C6.82063 9.09943 7.10108 8.42237 7.60028 7.92318C8.09948 7.42398 8.77654 7.14353 9.48251 7.14353C10.1885 7.14353 10.8655 7.42398 11.3647 7.92318C11.8639 8.42237 12.1444 9.09943 12.1444 9.80541C12.1444 10.5114 11.8639 11.1884 11.3647 11.6876C10.8655 12.1868 10.1885 12.4673 9.48251 12.4673ZM9.48251 10.6927C9.71784 10.6927 9.94352 10.5992 10.1099 10.4328C10.2763 10.2664 10.3698 10.0407 10.3698 9.80541C10.3698 9.57008 10.2763 9.3444 10.1099 9.178C9.94352 9.0116 9.71784 8.91811 9.48251 8.91811C9.24719 8.91811 9.0215 9.0116 8.8551 9.178C8.6887 9.3444 8.59522 9.57008 8.59522 9.80541C8.59522 10.0407 8.6887 10.2664 8.8551 10.4328C9.0215 10.5992 9.24719 10.6927 9.48251 10.6927Z" fill="white"/>
</svg>
